<?xml version="1.0" encoding="UTF-8" standalone="no"?>
<!DOCTYPE svg PUBLIC "-//W3C//DTD SVG 1.1//EN" "http://www.w3.org/Graphics/SVG/1.1/DTD/svg11.dtd">
<svg width="100%" height="100%" viewBox="0 0 100 100" version="1.1" xmlns="http://www.w3.org/2000/svg" xmlns:xlink="http://www.w3.org/1999/xlink" xml:space="preserve" xmlns:serif="http://www.serif.com/" style="fill-rule:evenodd;clip-rule:evenodd;stroke-linejoin:round;stroke-miterlimit:2;">
    <g transform="matrix(0.606342,0,0,0.606342,19.7434,20.4698)">
        <g transform="matrix(1.86783,0.0652259,-0.0835707,2.39315,-29.3154,-41.2877)">
            <ellipse cx="43.462" cy="36.327" rx="39.709" ry="30.993" style="fill:rgb(31,33,59);"/>
        </g>
        <g transform="matrix(1,0,0,1,-6.59693,-4.9477)">
            <g transform="matrix(0.7071,-0.7071,0.7071,0.7071,-46.8155,39.187)">
                <rect x="22.333" y="74.542" width="3.125" height="3.125" style="fill:rgb(104,182,120);"/>
            </g>
            <g transform="matrix(0.7071,-0.7071,0.7071,0.7071,-51.2352,37.3564)">
                <rect x="17.913" y="78.963" width="3.125" height="3.125" style="fill:rgb(104,182,120);"/>
            </g>
            <g transform="matrix(0.7071,-0.7071,0.7071,0.7071,-55.5987,35.5489)">
                <rect x="13.628" y="83.325" width="2.969" height="3.125" style="fill:rgb(104,182,120);"/>
            </g>
            <path d="M93.75,1.563L50,1.563C47.416,1.563 45.313,3.666 45.313,6.25L45.313,18.972C44.809,18.841 44.292,18.75 43.75,18.75C42.045,18.75 40.5,19.439 39.372,20.552L26.28,12.697C26.445,12.134 26.563,11.552 26.563,10.938C26.563,7.491 23.759,4.688 20.313,4.688C16.866,4.688 14.063,7.491 14.063,10.938C14.063,12.691 14.792,14.272 15.959,15.408L9.445,26.806C8.922,26.664 8.381,26.563 7.813,26.563C4.366,26.563 1.563,29.366 1.563,32.813C1.563,36.259 4.366,39.063 7.813,39.063C11.259,39.063 14.063,36.259 14.063,32.813C14.063,31.059 13.333,29.478 12.166,28.342L18.68,16.944C19.203,17.086 19.744,17.188 20.313,17.188C22.017,17.188 23.563,16.498 24.691,15.388L37.783,23.242C37.617,23.803 37.5,24.386 37.5,25C37.5,26.086 37.803,27.092 38.292,27.984C27.594,31.612 20.313,41.62 20.313,53.125C20.313,58.237 21.789,63.002 24.303,67.058L4.144,84.984C2.503,86.444 1.563,88.539 1.563,90.742C1.563,94.986 5.014,98.438 9.258,98.438C11.459,98.438 13.558,97.492 15.017,95.845L32.894,75.669C36.961,78.2 41.742,79.688 46.875,79.688C61.522,79.688 73.438,67.772 73.438,53.125C73.438,50.459 73.019,47.842 72.213,45.313L93.75,45.313C96.334,45.313 98.438,43.209 98.438,40.625L98.438,6.25C98.438,3.666 96.334,1.563 93.75,1.563ZM7.813,35.938C6.089,35.938 4.688,34.536 4.688,32.813C4.688,31.089 6.089,29.688 7.813,29.688C9.536,29.688 10.938,31.089 10.938,32.813C10.938,34.536 9.536,35.938 7.813,35.938ZM95.313,6.25L95.313,10.938L78.125,10.938L78.125,4.688L93.75,4.688C94.611,4.688 95.313,5.389 95.313,6.25ZM68.75,4.688L75,4.688L75,17.188L68.75,17.188L68.75,4.688ZM50,4.688L65.625,4.688L65.625,10.938L48.438,10.938L48.438,6.25C48.438,5.389 49.139,4.688 50,4.688ZM62.148,45.313C63.383,47.722 64.063,50.395 64.063,53.125C64.063,62.602 56.352,70.313 46.875,70.313C37.398,70.313 29.688,62.602 29.688,53.125C29.688,44.175 36.566,36.809 45.313,36.017L45.313,40.625C45.313,43.209 47.416,45.313 50,45.313L62.148,45.313ZM43.75,21.875C45.473,21.875 46.875,23.277 46.875,25C46.875,26.723 45.473,28.125 43.75,28.125C42.027,28.125 40.625,26.723 40.625,25C40.625,23.277 42.027,21.875 43.75,21.875ZM20.313,14.063C18.589,14.063 17.188,12.661 17.188,10.938C17.188,9.214 18.589,7.813 20.313,7.813C22.036,7.813 23.438,9.214 23.438,10.938C23.438,12.661 22.036,14.063 20.313,14.063ZM12.678,93.773C11.813,94.752 10.566,95.313 9.258,95.313C6.738,95.313 4.688,93.263 4.688,90.734C4.688,89.431 5.247,88.186 6.22,87.319L26.105,69.636C27.348,71.197 28.761,72.614 30.319,73.861L12.678,93.773ZM70.313,53.125C70.313,66.048 59.798,76.563 46.875,76.563C33.952,76.563 23.438,66.048 23.438,53.125C23.438,42.436 30.564,33.22 40.83,30.492C41.706,30.959 42.691,31.25 43.75,31.25C44.292,31.25 44.809,31.159 45.313,31.028L45.313,32.892C34.842,33.694 26.563,42.452 26.563,53.125C26.563,64.325 35.675,73.438 46.875,73.438C58.075,73.438 67.188,64.325 67.188,53.125C67.188,50.433 66.652,47.775 65.627,45.313L68.894,45.313C69.817,47.828 70.313,50.447 70.313,53.125ZM93.75,42.188L50,42.188C49.139,42.188 48.438,41.486 48.438,40.625L48.438,29.091C49.398,27.992 50,26.572 50,25C50,23.428 49.398,22.009 48.438,20.909L48.438,14.063L65.625,14.063L65.625,20.313L78.125,20.313L78.125,14.063L95.313,14.063L95.313,40.625C95.313,41.486 94.611,42.188 93.75,42.188Z" style="fill:rgb(104,182,120);fill-rule:nonzero;"/>
            <rect x="76.563" y="35.938" width="3.125" height="3.125" style="fill:rgb(104,182,120);"/>
            <rect x="82.813" y="35.938" width="3.125" height="3.125" style="fill:rgb(104,182,120);"/>
            <rect x="89.063" y="35.938" width="3.125" height="3.125" style="fill:rgb(104,182,120);"/>
            <path d="M85.938,95.313L82.813,95.313L82.813,70.313L70.313,70.313L70.313,95.313L67.188,95.313L67.188,79.688L54.688,79.688L54.688,98.438L98.438,98.438L98.438,54.688L85.938,54.688L85.938,95.313ZM64.063,95.313L57.813,95.313L57.813,82.813L64.063,82.813L64.063,95.313ZM73.438,73.438L79.688,73.438L79.688,95.313L73.438,95.313L73.438,73.438ZM89.063,57.813L95.313,57.813L95.313,95.313L89.063,95.313L89.063,57.813Z" style="fill:rgb(104,182,120);fill-rule:nonzero;"/>
            <rect x="35.938" y="48.438" width="21.875" height="3.125" style="fill:rgb(104,182,120);"/>
            <rect x="35.938" y="54.688" width="21.875" height="3.125" style="fill:rgb(104,182,120);"/>
            <rect x="35.938" y="60.938" width="3.125" height="3.125" style="fill:rgb(104,182,120);"/>
            <rect x="48.438" y="60.938" width="3.125" height="3.125" style="fill:rgb(104,182,120);"/>
            <rect x="42.188" y="60.938" width="3.125" height="3.125" style="fill:rgb(104,182,120);"/>
            <rect x="76.563" y="29.688" width="15.625" height="3.125" style="fill:rgb(104,182,120);"/>
        </g>
        <g transform="matrix(1.62992,0,0,1.6719,-35.7731,-37.8107)">
            <path d="M51.816,4.843C78.343,4.843 99.879,25.838 99.879,51.699C99.879,77.559 78.343,98.554 51.816,98.554C25.289,98.554 3.753,77.559 3.753,51.699C3.753,25.838 25.289,4.843 51.816,4.843ZM51.816,10.037C75.402,10.037 94.55,28.705 94.55,51.699C94.55,74.692 75.402,93.36 51.816,93.36C28.23,93.36 9.081,74.692 9.081,51.699C9.081,28.705 28.23,10.037 51.816,10.037Z" style="fill:rgb(104,182,120);"/>
        </g>
    </g>
</svg>
