<svg height='100px' width='100px'  fill="#68b678" xmlns="http://www.w3.org/2000/svg" viewBox="0 0 64 64" x="0px" y="0px"><title>School</title><g data-name="23. Art"><path d="M27.89576,57c7.74752,0,13.159-2.6543,13.159-6.45459,0-1.84521-1.74229-3.14355-3.426-4.39893-1.24421-.92724-2.65445-1.978-2.66715-2.85693-.00732-.58118.61265-1.22095,1.17963-1.68561a.97344.97344,0,0,0,1.04517-.18866,2.20138,2.20138,0,0,1,.22249.12714C42.66744,46.81586,53.15,57,55.6718,57a1.3305,1.3305,0,0,0,.95709-.38232c.618-.62439,1.66623-1.70484-8.21917-12.38276,1.41524-1.61712,2.59286-4.59625,2.59286-10.05328C51.00258,16.39941,43.01285,7,27.89576,7,12.67318,7,7,23.00342,7,33.09082,7,53.894,20.09159,57,27.89576,57Zm0-48c14.0057,0,21.1067,8.47217,21.1067,25.18164,0,4.07318-.69376,7.0141-1.95977,8.58954-1.58456-1.68231-3.416-3.58038-5.52229-5.71655l.02362-.02387a1.00023,1.00023,0,0,0,0-1.40722l-2.1554-2.17627a1.03051,1.03051,0,0,0-1.422,0L37.959,33.455l-2.90215-2.93091.02191-.02216a1.00021,1.00021,0,0,0,0-1.40722l-2.1554-2.17627a1.01952,1.01952,0,0,0-1.22016-.13111,6.21661,6.21661,0,0,0-1.65305-2.77075,9.54592,9.54592,0,0,0-8.05461-2.9624c.00024-.01837.00531-.03577.00531-.0542a4.0448,4.0448,0,1,0-1.39278,3.0097c2.14343,1.25745,2.27107,2.07062,2.4153,2.99323a4.44711,4.44711,0,0,0,1.295,2.77344,6.148,6.148,0,0,0,2.75419,1.67535.98622.98622,0,0,0,.119,1.2265l2.1554,2.17627a1.00094,1.00094,0,0,0,1.422,0l.0069-.007L33.678,37.77838l-.02118.02142a1.00022,1.00022,0,0,0,0,1.40723l1.014,1.0246a4.083,4.083,0,0,0-1.70841,3.08575c.02539,1.86524,1.77647,3.17041,3.47091,4.43262,1.22858.916,2.62124,1.9541,2.62124,2.79541C39.05461,53.00146,34.04846,55,27.89576,55,19.27611,55,9.00012,51.19873,9.00012,33.09082,9.00012,23.77686,14.1303,9,27.89576,9Zm4.28736,24.42578,1.4659-1.48047,2.90252,2.93115-1.46591,1.48047Zm.75492-3.60547-2.87321,2.90186-.00086.00128-.006.006-.74809-.75488,2.90252-2.93115.74809.75488L32.94,29.819Zm-7.19768-1.45117a2.50369,2.50369,0,0,1-.74126-1.6748,4.94518,4.94518,0,0,0-2.27748-3.68653,7.678,7.678,0,0,1,5.9066,2.416,3.69314,3.69314,0,0,1,1.23543,3.14892l-1.03034,1.041A3.61048,3.61048,0,0,1,25.74036,28.36914ZM35.796,38.48236l.00061-.00043,2.881-2.90966.74809.75488-2.90349,2.93164-.74712-.75537ZM19.60328,21.626a1.002,1.002,0,0,0-.60258.88818.98678.98678,0,0,0,.022.191,2.05223,2.05223,0,0,1-2.43618-.29114,2.01264,2.01264,0,1,1,3.34279-.91174C19.74562,21.56592,19.63245,21.6134,19.60328,21.626Zm19.0464,18.32751,1.46377-1.47815c5.86552,5.9643,11.82278,12.51642,14.01724,15.6355C51.03487,51.88678,44.54834,45.87036,38.64968,39.95349Z"></path><path d="M27.00117,53a5,5,0,1,0-3.53536-1.46436A4.96617,4.96617,0,0,0,27.00117,53Zm0-8a3,3,0,0,1,2.12122,5.12158,3.07283,3.07283,0,0,1-4.24244,0A3,3,0,0,1,27.00117,45Z"></path><path d="M36.0017,20a4.00113,4.00113,0,1,0-2.82829-1.17187A3.97338,3.97338,0,0,0,36.0017,20Zm-1.41415-5.41406a1.99985,1.99985,0,1,1,2.8283,2.82812,2.04728,2.04728,0,0,1-2.8283,0,1.99919,1.99919,0,0,1,0-2.82812Z"></path><path d="M38.00182,24a4.00115,4.00115,0,1,0,1.17194-2.82812A3.97175,3.97175,0,0,0,38.00182,24Zm2.58609-1.41406a1.99984,1.99984,0,1,1,2.82829,2.82812,2.04727,2.04727,0,0,1-2.82829,0,1.99916,1.99916,0,0,1,0-2.82812Z"></path><path d="M26.00111,19a4.00113,4.00113,0,1,0-2.82829-1.17187A3.97334,3.97334,0,0,0,26.00111,19ZM24.587,13.58594a1.99984,1.99984,0,1,1,2.82829,2.82812,2.04727,2.04727,0,0,1-2.82829,0,1.99919,1.99919,0,0,1,0-2.82812Z"></path><path d="M12.17218,33.82813A3.99836,3.99836,0,1,0,11.00023,31,3.97338,3.97338,0,0,0,12.17218,33.82813Zm1.41414-4.24219a1.99984,1.99984,0,1,1,2.82829,2.82812,2.04727,2.04727,0,0,1-2.82829,0,1.99919,1.99919,0,0,1,0-2.82812Z"></path></g></svg>