<svg height='100px' width='100px'  fill="#68b678" xmlns="http://www.w3.org/2000/svg" xmlns:xlink="http://www.w3.org/1999/xlink" version="1.0" x="0px" y="0px" viewBox="0 0 100 100" enable-background="new 0 0 100 100" xml:space="preserve"><path d="M86.674,33.332H66.66V13.327c-11.106-4.604-23.04-4.265-33.334,0v20.005h-20c-4.603,11.107-4.264,23.039,0,33.336h20v20.007  c11.107,4.603,23.041,4.264,33.334,0V66.668h20.014C91.276,55.558,90.938,43.625,86.674,33.332z M33.326,56.668v3.333H18.053  c-1.863-6.563-1.863-13.445,0-20.002h31.94v-6.667h-10V18.055c3.255-0.922,6.614-1.389,10.02-1.389c3.391,0,6.732,0.466,9.98,1.387  v25.28c0,1.841-1.494,3.333-3.333,3.333H43.327C37.806,46.667,33.326,51.144,33.326,56.668z M81.946,60.001H49.994v6.667h10v15.279  c-3.255,0.921-6.611,1.387-10.019,1.387c-3.389,0-6.732-0.466-9.98-1.387V56.668c0-1.844,1.493-3.334,3.333-3.334H56.66  c5.521,0,10-4.476,10-10v-3.335h15.286C83.809,46.56,83.809,53.441,81.946,60.001z"></path><circle cx="48.326" cy="25" r="3.333"></circle><circle cx="51.659" cy="75" r="3.333"></circle></svg>