<svg height='100px' width='100px'  fill="#68b678" xmlns="http://www.w3.org/2000/svg" data-name="Layer 1" viewBox="0 0 100 100" x="0px" y="0px"><title>B___33</title><path d="M11.25,46.21H39.96a6.25231,6.25231,0,0,0,6.25-6.25V11.25A6.25231,6.25231,0,0,0,39.96,5H11.25A6.25223,6.25223,0,0,0,5,11.25V39.96A6.25223,6.25223,0,0,0,11.25,46.21Zm.6499-24.6H21.6V11.9h8v9.71h9.71v8H29.6v9.7h-8v-9.7H11.8999Z"></path><path d="M60.04,46.21H88.75A6.25231,6.25231,0,0,0,95,39.96V11.25A6.25231,6.25231,0,0,0,88.75,5H60.04a6.25223,6.25223,0,0,0-6.25,6.25V39.96A6.25223,6.25223,0,0,0,60.04,46.21Zm1.82983-27.47L67.53,13.08l6.86987,6.87L81.26,13.08l5.65991,5.66-6.86,6.87,6.86,6.86-5.65991,5.66L74.3999,31.27l-6.86987,6.86-5.66016-5.66L68.74,25.61Z"></path><path d="M5,88.75A6.25227,6.25227,0,0,0,11.25,95H39.96a6.25234,6.25234,0,0,0,6.25-6.25V60.04a6.25231,6.25231,0,0,0-6.25-6.25H11.25A6.25223,6.25223,0,0,0,5,60.04ZM11.8999,70.4h27.41v8h-27.41Z"></path><path d="M53.79,88.75A6.25227,6.25227,0,0,0,60.04,95H88.75A6.25234,6.25234,0,0,0,95,88.75V60.04a6.25231,6.25231,0,0,0-6.25-6.25H60.04a6.25223,6.25223,0,0,0-6.25,6.25ZM74.3999,90a4,4,0,1,1,4-4A3.99895,3.99895,0,0,1,74.3999,90Zm0-31.21a4,4,0,1,1-4,4A4.00524,4.00524,0,0,1,74.3999,58.79Zm-13.71,11.61H88.1v8h-27.41Z"></path></svg>