<svg height='100px' width='100px'  fill="#68b678" xmlns="http://www.w3.org/2000/svg" xmlns:xlink="http://www.w3.org/1999/xlink" version="1.1" x="0px" y="0px" viewBox="0 0 64 64" style="enable-background:new 0 0 64 64;" xml:space="preserve"><path d="M57.268,7c-0.068,0-0.132,0.016-0.199,0.018C53.948,3.876,49.484,2,45,2c-7.161,0-11.32,4.114-13,6.253  C30.32,6.114,26.161,2,19,2C12.167,2,2,6.793,2,20c0,6.945,4.054,14.869,12.027,23.559l-5.734,5.734C8.105,49.48,8,49.735,8,50v11  c0,0.552,0.447,1,1,1h29c0.553,0,1-0.448,1-1v-5.606l13.731-14.712c0.04-0.043,0.077-0.091,0.109-0.142l9-14  C61.945,26.379,62,26.192,62,26V11.732C62,9.123,59.877,7,57.268,7z M60,11.732v12.88l-6.899-2.3l1.459-10.942  C54.739,10.02,55.904,9,57.268,9C58.774,9,60,10.226,60,11.732z M4,20C4,8.261,12.971,4,19,4c8.281,0,11.979,6.233,12.132,6.496  c0.355,0.623,1.381,0.623,1.736,0C32.905,10.431,36.677,4,45,4c3.59,0,7.172,1.35,9.86,3.666c-1.211,0.72-2.086,1.965-2.282,3.441  l-1.535,11.51L43.346,33.2l-11.53,5.277C31.158,35.906,28.822,34,26.05,34c-1.589,0-3.083,0.619-4.207,1.743l-6.401,6.401  C7.856,33.862,4,26.414,4,20z M10,60v-9.586l13.257-13.257C24.003,36.411,24.995,36,26.05,36c2.178,0,3.95,1.772,3.95,3.95  c0,1.055-0.411,2.047-1.157,2.793l-7.55,7.55l1.414,1.414l7.55-7.55c0.494-0.494,0.887-1.06,1.176-1.673L37,55.209V60H10z   M38.306,53.206l-5.65-12.914l11.219-5.135l6.633,4.975L38.306,53.206z M51.74,38.555l-6.351-4.764l6.99-9.611l7.085,2.362  L51.74,38.555z"></path><path d="M10.742,10.272l1.373,1.455c0.787-0.743,1.713-1.353,2.752-1.813l-0.811-1.829C12.811,8.637,11.695,9.373,10.742,10.272z"></path><path d="M10.641,13.529l-1.697-1.059C7.654,14.537,7,17.071,7,20c0,4.226,2.036,9.136,6.051,14.593l1.611-1.186  C10.905,28.301,9,23.791,9,20C9,17.451,9.552,15.274,10.641,13.529z"></path><rect x="12" y="56" width="2" height="2"></rect><rect x="16" y="56" width="2" height="2"></rect><rect x="12" y="52" width="2" height="2"></rect></svg>