<svg height='100px' width='100px'  fill="#68b678" xmlns="http://www.w3.org/2000/svg" data-name="Layer 1" viewBox="0 0 64 64" x="0px" y="0px"><title>language, international, communication, speak, talk</title><path d="M47.55,14.89a1,1,0,0,0,1.34-.45L49.62,13h2.76l.72,1.45a1,1,0,0,0,1.79-.89l-3-6a1,1,0,0,0-1.79,0l-3,6A1,1,0,0,0,47.55,14.89ZM51,10.24l.38.76h-.76Z"></path><path d="M47,38a1,1,0,0,0,0,2h1.57A1.76,1.76,0,0,1,47,41a1,1,0,0,0,0,2,3.77,3.77,0,0,0,3-1.48V42a1,1,0,0,0,2,0v-.49A3.77,3.77,0,0,0,55,43a1,1,0,0,0,0-2,1.76,1.76,0,0,1-1.57-1H55a1,1,0,0,0,0-2H52.72l-.77-2.32h0a1,1,0,0,0-.18-.32l-.07-.06a1,1,0,0,0-.21-.16l-.14,0a1,1,0,0,0-.17-.06H51a1,1,0,0,0-.24,0h-.05l-.08,0a1,1,0,0,0-.2.12l-.11.1a1.19,1.19,0,0,0-.2.31l0,.07L49.28,38Z"></path><path d="M30,60a1,1,0,0,0,1-1V41.39L42.71,28.78a3.09,3.09,0,0,0,.85-2.14,3.22,3.22,0,0,0-.33-1.41,3.15,3.15,0,0,0-2.31-1.7,3.1,3.1,0,0,0-1,0c0-.51.07-1,.07-1.53a17.88,17.88,0,0,0-2.07-8.36l0-.08a18,18,0,0,0-31.78,0l0,.08a17.89,17.89,0,0,0,0,16.72,1,1,0,0,0,.06.1,18,18,0,0,0,5.74,6.4A8,8,0,0,0,9,43V59a1,1,0,0,0,1,1ZM22,23a7,7,0,0,0-5.79,3.07c-.1-1-.16-2-.19-3.07H28c0,1-.08,2.07-.19,3.07A7,7,0,0,0,22,23Zm5,7a5,5,0,0,1-.1,1V31a5,5,0,0,1-9.77,0V31A5,5,0,1,1,27,30ZM16,21a36.41,36.41,0,0,1,.62-6H27.36A36.41,36.41,0,0,1,28,21ZM28.56,32.41a6.92,6.92,0,0,0,.31-1.12l.07-.3h2.64l-4,4A21.68,21.68,0,0,0,28.56,32.41ZM29.38,29a39,39,0,0,0,.6-6h8a16.14,16.14,0,0,1-.21,1.85L33.59,29Zm8.57-8H30a39.64,39.64,0,0,0-.57-6h7A15.86,15.86,0,0,1,37.95,21Zm-2.73-8H29a18.2,18.2,0,0,0-2.76-6.41A16,16,0,0,1,35.22,13ZM22,6c1.8,0,3.73,2.65,4.9,7H17.1C18.27,8.65,20.2,6,22,6Zm-4.23.59A18.2,18.2,0,0,0,15,13H8.78A16,16,0,0,1,17.77,6.59ZM7.63,15h7A39.64,39.64,0,0,0,14,21h-8A15.86,15.86,0,0,1,7.63,15Zm0,14A16,16,0,0,1,6,23h8a39,39,0,0,0,.6,6Zm1.16,2h6.27l.07.3a6.92,6.92,0,0,0,.31,1.12,21.61,21.61,0,0,0,1,2.62,7.93,7.93,0,0,0-2.66.67A16,16,0,0,1,8.78,31ZM11,43a6,6,0,0,1,6-6H28a1,1,0,0,0,.71-.29l6-6h0l4.89-4.89a1.15,1.15,0,0,1,1.83.29,1.23,1.23,0,0,1,.13.54,1.1,1.1,0,0,1-.3.77l-12,12.91A1,1,0,0,0,29,41V58H16V45a1,1,0,0,0-2,0V58H11Z"></path><path d="M59,4H43a1,1,0,0,0-1,1V17a1,1,0,0,0,1,1h1v3a1,1,0,0,0,1.62.78L50.35,18H59a1,1,0,0,0,1-1V5A1,1,0,0,0,59,4ZM58,16H50a1,1,0,0,0-.62.22L46,18.92V17a1,1,0,0,0-1-1H44V6H58Z"></path><path d="M59,32H50.35l-4.73-3.78A1,1,0,0,0,44,29v3H43a1,1,0,0,0-1,1V45a1,1,0,0,0,1,1H59a1,1,0,0,0,1-1V33A1,1,0,0,0,59,32ZM58,44H44V34h1a1,1,0,0,0,1-1V31.08l3.38,2.7A1,1,0,0,0,50,34h8Z"></path></svg>