<svg height='100px' width='100px'  fill="#68b678" xmlns="http://www.w3.org/2000/svg" xmlns:xlink="http://www.w3.org/1999/xlink" version="1.1" x="0px" y="0px" viewBox="0 0 64 64" style="enable-background:new 0 0 64 64;" xml:space="preserve"><g><rect x="14.293" y="47.707" transform="matrix(0.7071 -0.7071 0.7071 0.7071 -29.9619 25.0797)" width="2" height="2"></rect><rect x="11.464" y="50.536" transform="matrix(0.7071 -0.7071 0.7071 0.7071 -32.7905 23.9081)" width="2" height="2"></rect><rect x="8.722" y="53.328" transform="matrix(0.7071 -0.7071 0.7071 0.7071 -35.5832 22.7513)" width="1.9" height="2"></rect><path d="M60,1H32c-1.654,0-3,1.346-3,3v8.142C28.678,12.058,28.347,12,28,12c-1.091,0-2.08,0.441-2.802,1.153l-8.379-5.027   C16.925,7.766,17,7.393,17,7c0-2.206-1.794-4-4-4S9,4.794,9,7c0,1.122,0.467,2.134,1.214,2.861l-4.169,7.295   C5.71,17.065,5.364,17,5,17c-2.206,0-4,1.794-4,4s1.794,4,4,4s4-1.794,4-4c0-1.122-0.467-2.134-1.214-2.861l4.169-7.295   C12.29,10.935,12.636,11,13,11c1.091,0,2.08-0.441,2.802-1.152l8.379,5.027C24.075,15.234,24,15.607,24,16   c0,0.695,0.194,1.339,0.507,1.91C17.66,20.232,13,26.637,13,34c0,3.272,0.945,6.321,2.554,8.917L2.652,54.39   C1.602,55.324,1,56.665,1,58.075C1,60.791,3.209,63,5.925,63c1.409,0,2.752-0.605,3.686-1.659l11.441-12.913   C23.655,50.048,26.715,51,30,51c9.374,0,17-7.626,17-17c0-1.706-0.268-3.381-0.784-5H60c1.654,0,3-1.346,3-3V4   C63,2.346,61.654,1,60,1z M5,23c-1.103,0-2-0.897-2-2s0.897-2,2-2s2,0.897,2,2S6.103,23,5,23z M61,4v3H50V3h10   C60.551,3,61,3.449,61,4z M44,3h4v8h-4V3z M32,3h10v4H31V4C31,3.449,31.449,3,32,3z M39.775,29C40.565,30.542,41,32.253,41,34   c0,6.065-4.935,11-11,11s-11-4.935-11-11c0-5.728,4.402-10.442,10-10.949V26c0,1.654,1.346,3,3,3H39.775z M28,14   c1.103,0,2,0.897,2,2s-0.897,2-2,2s-2-0.897-2-2S26.897,14,28,14z M13,9c-1.103,0-2-0.897-2-2s0.897-2,2-2s2,0.897,2,2   S14.103,9,13,9z M8.114,60.015C7.56,60.641,6.762,61,5.925,61C4.312,61,3,59.688,3,58.07c0-0.834,0.358-1.631,0.981-2.186   l12.726-11.317c0.796,0.999,1.7,1.906,2.697,2.704L8.114,60.015z M45,34c0,8.271-6.729,15-15,15s-15-6.729-15-15   c0-6.841,4.561-12.739,11.131-14.485C26.692,19.814,27.322,20,28,20c0.347,0,0.678-0.058,1-0.142v1.193   C22.299,21.564,17,27.169,17,34c0,7.168,5.832,13,13,13s13-5.832,13-13c0-1.723-0.343-3.424-0.999-5h2.091   C44.683,30.61,45,32.286,45,34z M60,27H32c-0.551,0-1-0.449-1-1v-7.382c0.615-0.703,1-1.612,1-2.618s-0.385-1.914-1-2.618V9h11v4h8   V9h11v17C61,26.551,60.551,27,60,27z"></path><rect x="49" y="23" width="2" height="2"></rect><rect x="53" y="23" width="2" height="2"></rect><rect x="57" y="23" width="2" height="2"></rect><path d="M55,61h-2V45h-8v16h-2V51h-8v12h28V35h-8V61z M41,61h-4v-8h4V61z M47,47h4v14h-4V47z M57,37h4v24h-4V37z"></path><rect x="23" y="31" width="14" height="2"></rect><rect x="23" y="35" width="14" height="2"></rect><rect x="23" y="39" width="2" height="2"></rect><rect x="31" y="39" width="2" height="2"></rect><rect x="27" y="39" width="2" height="2"></rect><rect x="49" y="19" width="10" height="2"></rect></g></svg>