<svg height='100px' width='100px'  fill="#68b678" xmlns="http://www.w3.org/2000/svg" xmlns:xlink="http://www.w3.org/1999/xlink" version="1.1" x="0px" y="0px" viewBox="0 0 64 64" style="enable-background:new 0 0 64 64;" xml:space="preserve"><g><path d="M49,18c1.654,0,3-1.346,3-3s-1.346-3-3-3c-1.302,0-2.402,0.839-2.816,2H33v2h13.184C46.598,17.161,47.698,18,49,18z"></path><path d="M60,37c1.654,0,3-1.346,3-3s-1.346-3-3-3c-1.302,0-2.402,0.839-2.816,2H33v2h24.184C57.598,36.161,58.698,37,60,37z"></path><path d="M45.414,7h6.77C52.598,8.161,53.698,9,55,9c1.654,0,3-1.346,3-3s-1.346-3-3-3c-1.302,0-2.402,0.839-2.816,2h-7.598l-3,3   L33,7.999v2L42.414,10L45.414,7z"></path><path d="M44.586,25h9.598c0.414,1.161,1.514,2,2.816,2c1.654,0,3-1.346,3-3s-1.346-3-3-3c-1.302,0-2.402,0.839-2.816,2h-8.77l-3-3   L33,19.999v2L41.586,22L44.586,25z"></path><path d="M22.337,24.955l-0.255,1.236C22.027,26.455,22,26.728,22,27c0,2.206,1.794,4,4,4h0.303l0.252,0.168   c0.13,0.086,2.945,2.016,3.383,5.832H31V7c0-2.206-1.794-4-4-4s-4,1.794-4,4s1.794,4,4,4v2c-2.149,0-4.032-1.139-5.092-2.841   C20.214,10.636,19,12.183,19,14c0,2.206,1.794,4,4,4v2c-1.811,0-3.434-0.81-4.535-2.083C17.551,18.669,17,19.789,17,21   c0,2.188,1.767,3.972,3.949,4c0.042-0.006,0.083-0.009,0.126-0.011L22.337,24.955z M27,5c1.654,0,3,1.346,3,3h-2   c0-0.552-0.448-1-1-1V5z M29,15v2c-0.552,0-1,0.448-1,1h-2C26,16.346,27.346,15,29,15z M25,22c1.654,0,3,1.346,3,3h-2   c0-0.552-0.448-1-1-1V22z"></path><path d="M41.451,46.758c-0.13-0.382-0.291-0.767-0.477-1.145l-0.214-0.436l0.639-1.335l-3.242-3.242l-1.335,0.639l-0.436-0.214   c-0.378-0.186-0.763-0.347-1.145-0.477l-0.459-0.156L34.292,39h-4.584l-0.491,1.393l-0.459,0.156   c-0.382,0.13-0.767,0.291-1.145,0.477l-0.436,0.214l-1.335-0.639l-3.242,3.242l0.639,1.335l-0.214,0.436   c-0.186,0.378-0.347,0.763-0.477,1.145l-0.156,0.459L21,47.708v4.584l1.393,0.491l0.156,0.459c0.13,0.382,0.291,0.767,0.477,1.145   l0.214,0.436l-0.639,1.335l3.242,3.242l1.335-0.639l0.436,0.214c0.378,0.186,0.763,0.347,1.145,0.477l0.459,0.156L29.708,61h4.584   l0.491-1.393l0.459-0.156c0.382-0.13,0.767-0.291,1.145-0.477l0.436-0.214l1.335,0.639l3.242-3.242l-0.639-1.335l0.214-0.436   c0.186-0.378,0.347-0.763,0.477-1.145l0.156-0.459L43,52.292v-4.584l-1.393-0.491L41.451,46.758z M32,57c-3.866,0-7-3.134-7-7   c0-3.866,3.134-7,7-7s7,3.134,7,7C39,53.866,35.866,57,32,57z"></path><circle cx="32" cy="50" r="3"></circle><polygon points="51.637,55.72 48.649,49 45,49 45,51 47.351,51 52.363,62.28 55.819,45 63,45 63,43 54.181,43  "></polygon><polygon points="12.363,55.72 9.819,43 1,43 1,45 8.181,45 11.637,62.28 16.649,51 19,51 19,49 15.351,49  "></polygon></g></svg>