<?xml version="1.0" encoding="UTF-8" standalone="no"?>
<!DOCTYPE svg PUBLIC "-//W3C//DTD SVG 1.1//EN" "http://www.w3.org/Graphics/SVG/1.1/DTD/svg11.dtd">
<svg width="100%" height="100%" viewBox="0 0 200 200" version="1.1" xmlns="http://www.w3.org/2000/svg" xmlns:xlink="http://www.w3.org/1999/xlink" xml:space="preserve" xmlns:serif="http://www.serif.com/" style="fill-rule:evenodd;clip-rule:evenodd;stroke-miterlimit:10;">
    <g id="Layer_4" transform="matrix(0.37037,0,0,0.37037,0,0)">
        <g>
            <circle cx="276" cy="276.2" r="235.5" style="fill:url(#_Linear1);"/>
            <g>
                <path d="M384.61,355.11C378.06,355.11 366.57,350.53 365.04,333.34C364.76,330.15 360.05,311.94 354.15,307.42C345.48,286.55 336.55,264.99 328.82,241.77C336.26,232.79 347.52,227.26 358.52,227.26C367.78,227.26 384.7,231.23 393.88,257.86C402.98,284.23 406.72,335.5 391.62,352.68C390.28,354.2 387.66,355.11 384.61,355.11Z" style="fill:rgb(98,180,118);fill-rule:nonzero;"/>
                <g>
                    <path d="M358.52,224.76L358.52,229.76C367.12,229.76 382.83,233.52 391.52,258.67C396.17,272.15 399.19,291.3 399.39,308.65C399.62,328.64 396.2,343.69 389.75,351.03C389.06,351.82 387.2,352.61 384.62,352.61C378.92,352.61 368.91,348.5 367.54,333.12C367.31,330.49 365.64,324.36 363.74,319.18C360.78,311.09 358.21,307.57 356.22,305.85C347.82,285.61 339.17,264.71 331.65,242.33C338.61,234.53 348.69,229.76 358.53,229.76L358.52,224.76M358.51,224.76C346.04,224.76 333.74,231.27 326.01,241.27C333.95,265.32 343.04,287.2 352.13,309.08C356.96,311.6 362.22,329.92 362.54,333.56C364.09,350.94 375.7,357.61 384.6,357.61C388.37,357.61 391.66,356.41 393.49,354.33C409.78,335.79 405.31,283.33 396.23,257.04C388.24,233.85 373.25,224.76 358.51,224.76Z" style="fill:rgb(34,45,91);fill-rule:nonzero;"/>
                </g>
            </g>
            <g>
                <path d="M194.02,421.46C193.58,421.46 193.17,421.41 192.79,421.32C170.57,415.88 144.27,371.7 136.64,344.88C132.21,329.32 133.68,316.03 140.91,306.46C147.29,298.01 158.12,292.97 169.89,292.97C173.6,292.97 177.25,293.46 180.77,294.43C187.73,317.88 192.75,340.68 197.6,362.75C195.35,369.83 201.92,387.45 203.52,390.23C210.05,401.61 207.26,409.82 205.01,413.7C201.91,419.03 197.15,421.46 194.02,421.46C194.03,421.46 194.03,421.46 194.02,421.46Z" style="fill:url(#_Linear2);fill-rule:nonzero;"/>
                <g>
                    <path d="M169.89,295.47C172.91,295.47 175.89,295.82 178.77,296.5C185.43,319.16 190.31,341.24 195.01,362.65C194.36,365.2 194.27,369.56 196.48,377.88C197.89,383.21 200.03,389.19 201.35,391.48C207.26,401.77 204.82,409.03 202.84,412.45C200.39,416.68 196.47,418.96 194.03,418.96C193.79,418.96 193.58,418.94 193.39,418.89C183.9,416.57 172.48,406.19 161.22,389.67C151.45,375.33 142.95,357.91 139.05,344.19C134.84,329.41 136.18,316.88 142.91,307.96C148.81,300.14 158.89,295.47 169.89,295.47M169.89,290.47C146.69,290.47 123.79,308.89 134.23,345.56C141.85,372.31 168.22,417.87 192.19,423.75C192.77,423.89 193.38,423.96 194.02,423.96C203.28,423.96 217.24,409.16 205.67,389C203.85,385.83 197.67,367.8 200.19,362.97C195.11,339.83 190.03,316.68 182.77,292.43C178.61,291.12 174.24,290.47 169.89,290.47Z" style="fill:rgb(34,45,91);fill-rule:nonzero;"/>
                </g>
            </g>
            <path d="M237.03,386.65C229.11,378.65 205.52,386.63 196.82,360.1C184.78,323.37 169.25,251.93 159.74,216.6C151.3,185.21 138.42,122.92 199.92,102.75C258.75,83.46 284.8,141.59 296.77,171.68C310.29,205.66 339.58,272.56 351.62,309.31C359.99,334.84 336.56,343.39 334.9,354.56C334.38,358.09 331.91,361.02 328.52,362.13L246.68,388.98C243.29,390.09 239.55,389.19 237.03,386.65Z" style="fill:rgb(245,245,252);fill-rule:nonzero;stroke:rgb(34,45,91);stroke-width:8px;"/>
            <path d="M157.47,190.54C147.97,149.21 160.38,102.62 220.68,99.35C263.04,99.35 284.45,152.85 284.45,152.85C252.36,137.16 180.89,164.5 157.47,190.54Z" style="fill:url(#_Linear3);fill-rule:nonzero;"/>
            <g>
                <g>
                    <g>
                        <path d="M331.35,368.3L326.55,368.85L336.54,416.93L301.82,381.37L317.64,471.36L277.18,395.64L267.79,448.32L258.92,405.08L254.94,408.68L254.83,532.89L251.48,559.86L409.79,516.71L331.35,368.3Z" style="fill:url(#_Linear4);fill-rule:nonzero;"/>
                    </g>
                </g>
            </g>
            <path d="M356.03,118.52C348.76,118.74 348.78,129.28 356.03,129.52C363.3,129.3 363.28,118.76 356.03,118.52Z" style="fill:rgb(245,245,245);fill-rule:nonzero;"/>
            <path d="M399.69,187.24C395.08,187.35 395.09,194.11 399.69,194.24C404.3,194.12 404.29,187.37 399.69,187.24Z" style="fill:rgb(245,245,245);fill-rule:nonzero;"/>
            <path d="M337.79,179.78C333.18,179.89 333.19,186.65 337.79,186.78C342.4,186.67 342.39,179.91 337.79,179.78Z" style="fill:rgb(245,245,245);fill-rule:nonzero;"/>
            <path d="M270.26,128.75C227.65,67.47 139.51,109.85 156.99,188.39C157.02,188.51 157.19,188.49 157.19,188.37C157.7,127.52 224.09,72.52 282.43,148.92C284.62,151.8 272.29,131.74 270.26,128.75Z" style="fill:rgb(224,255,225);fill-rule:nonzero;stroke:rgb(216,255,222);stroke-width:3px;stroke-linecap:round;"/>
            <path d="M175.01,295.16C170.62,293.11 165.6,293.29 161.65,294.13C147.9,296.29 137.9,309.45 136.36,322.99C135.24,332.14 137.12,341.36 140.49,349.86C142.72,356 146.23,363.54 149.33,369.29C147.18,362.66 144.76,354.32 143.06,347.57C141.01,339.11 139.64,333.11 140.29,324.4C141.13,313.16 148.78,301.57 160.44,297.77C165.43,295.88 170.05,295.32 175.31,296.3L175.01,295.16Z" style="fill:rgb(224,255,225);fill-rule:nonzero;"/>
            <path d="M393.61,257.75C385.65,234.93 365.3,218.48 342.58,232.14C338.44,234.94 330.65,239.91 331.99,243.37C340.63,232.73 356.76,229.29 368.42,232.79C389.28,241.46 393.66,266.4 397.94,288.07C398.41,281.91 396.63,266.43 393.61,257.75Z" style="fill:rgb(224,255,225);fill-rule:nonzero;"/>
            <circle cx="245.94" cy="244.35" r="46.3" style="fill:url(#_Linear5);"/>
            <g>
                <g>
                    <path d="M223.34,283.78L224.33,283.53L214.55,243.11L244.27,263.79L233.68,209.33L266.95,254.35L277.48,221.92L287.33,263.24C291.97,253.19 293.03,241.42 289.46,229.99C281.85,205.65 256.11,192.03 231.97,199.58C207.82,207.12 194.42,232.97 202.02,257.32C205.67,268.99 213.51,278.2 223.34,283.78Z" style="fill:url(#_Linear6);fill-rule:nonzero;"/>
                </g>
            </g>
            <path d="M246.41,200.61C264.98,200.61 282.15,212.19 288.16,230.51C295.67,253.42 282.85,278.18 259.54,285.83C254.87,287.36 250.13,288.09 245.47,288.09C226.9,288.09 209.73,276.51 203.72,258.19C196.21,235.28 209.03,210.52 232.34,202.87C237.02,201.34 241.76,200.61 246.41,200.61M246.42,190.6L246.42,200.61L246.42,190.6C240.6,190.6 234.81,191.53 229.23,193.36C200.71,202.71 185,233.19 194.21,261.31C201.42,283.32 222.02,298.1 245.47,298.1C251.29,298.1 257.07,297.17 262.65,295.34C291.17,285.99 306.88,255.51 297.67,227.39C290.46,205.38 269.86,190.6 246.42,190.6Z" style="fill:url(#_Linear7);fill-rule:nonzero;"/>
            <g>
                <path d="M245.94,190.74C275.55,190.74 299.55,214.74 299.55,244.35C299.55,273.96 275.55,297.96 245.94,297.96C216.33,297.96 192.33,273.96 192.33,244.35C192.33,214.74 216.34,190.74 245.94,190.74M245.94,183.74C212.52,183.74 185.33,210.93 185.33,244.35C185.33,277.77 212.52,304.96 245.94,304.96C279.36,304.96 306.55,277.77 306.55,244.35C306.55,210.93 279.36,183.74 245.94,183.74Z" style="fill:rgb(34,45,91);fill-rule:nonzero;"/>
            </g>
            <path d="M230.89,193.05C194.11,205.08 188.14,236.48 194.6,259.99C188.94,214.59 233.04,182.36 276.75,200.63C263.97,191.51 246.28,188.01 230.89,193.05Z" style="fill:rgb(224,255,225);fill-rule:nonzero;"/>
            <path d="M382.15,235.21C382.05,235.28 381.95,235.36 381.87,235.45" style="fill:none;fill-rule:nonzero;"/>
            <path d="M538.53,248.03C536.57,248.04 536.57,251.02 538.53,251.03C540.49,251.03 540.49,248.05 538.53,248.03Z" style="fill:rgb(216,255,222);fill-rule:nonzero;"/>
            <path d="M237.05,383.29C262.76,366.23 313.34,347.16 334.53,351.33C338.96,355.57 342.57,362.38 345.25,368.77C348.38,376.22 343.38,384.5 335.35,385.43C308.23,388.57 273.53,402.81 254.71,410.4C247.19,413.43 238.8,408.65 237.61,400.63C236.34,392.1 236.13,383.9 237.05,383.29Z" style="fill:url(#_Linear8);fill-rule:nonzero;stroke:rgb(34,45,91);stroke-width:7px;"/>
            <path d="M153.92,188.28C175.98,164.24 238.95,138.42 285.72,147.85L286.67,152.95C228.67,150.46 210.62,160.02 156.12,193.92C156.12,193.92 154.1,193.01 153.92,188.28Z" style="fill:rgb(34,45,91);fill-rule:nonzero;"/>
        </g>
        <circle cx="273.69" cy="269.71" r="235.1" style="fill:none;stroke:rgb(71,66,146);stroke-width:28px;"/>
    </g>
    <g id="Layer_3" transform="matrix(0.37037,0,0,0.37037,0,0)">
        <path d="M380.51,137.94L401.56,107.87L371.54,117.61L356.56,81.95L348.31,120.75L319.99,114.18L342.33,134.53L342.11,135.33L311.03,157.7L349.61,150.92L359.67,186.78L370.98,154.38L406.14,162.54L380.51,137.94Z" style="fill:rgb(245,245,252);fill-rule:nonzero;"/>
        <path d="M122.67,240.45C117.4,240.58 117.41,248.3 122.67,248.45C127.95,248.32 127.93,240.6 122.67,240.45Z" style="fill:rgb(245,245,252);fill-rule:nonzero;"/>
        <path d="M110.38,195.9C105.11,196.03 105.12,203.76 110.38,203.9C115.66,203.77 115.64,196.04 110.38,195.9Z" style="fill:rgb(245,245,252);fill-rule:nonzero;"/>
        <path d="M103.7,238.99C101.53,230.9 89.81,230.01 86.8,237.92C84.02,243.47 88.89,250.6 95.02,250.39C100.89,250.48 105.26,244.6 103.7,238.99Z" style="fill:rgb(245,245,252);fill-rule:nonzero;"/>
    </g>
    <defs>
        <linearGradient id="_Linear1" x1="0" y1="0" x2="1" y2="0" gradientUnits="userSpaceOnUse" gradientTransform="matrix(129.842,-853.093,853.093,129.842,230.564,574.624)"><stop offset="0" style="stop-color:rgb(71,66,146);stop-opacity:1"/><stop offset="0.23" style="stop-color:rgb(59,59,126);stop-opacity:1"/><stop offset="0.69" style="stop-color:rgb(29,40,75);stop-opacity:1"/><stop offset="1" style="stop-color:rgb(7,27,38);stop-opacity:1"/></linearGradient>
        <linearGradient id="_Linear2" x1="0" y1="0" x2="1" y2="0" gradientUnits="userSpaceOnUse" gradientTransform="matrix(63.0524,198.049,-198.049,63.0524,143.631,272.396)"><stop offset="0" style="stop-color:rgb(98,180,118);stop-opacity:1"/><stop offset="0.45" style="stop-color:rgb(108,193,122);stop-opacity:1"/><stop offset="1" style="stop-color:rgb(125,214,128);stop-opacity:1"/></linearGradient>
        <linearGradient id="_Linear3" x1="0" y1="0" x2="1" y2="0" gradientUnits="userSpaceOnUse" gradientTransform="matrix(28.036,105.021,-105.021,28.036,202.347,101.956)"><stop offset="0" style="stop-color:rgb(98,180,118);stop-opacity:1"/><stop offset="0.02" style="stop-color:rgb(96,178,117);stop-opacity:1"/><stop offset="0.16" style="stop-color:rgb(88,168,113);stop-opacity:1"/><stop offset="0.34" style="stop-color:rgb(86,165,112);stop-opacity:1"/><stop offset="1" style="stop-color:rgb(46,115,96);stop-opacity:1"/></linearGradient>
        <linearGradient id="_Linear4" x1="0" y1="0" x2="1" y2="0" gradientUnits="userSpaceOnUse" gradientTransform="matrix(80.5441,222.255,-222.255,80.5441,283.439,408.042)"><stop offset="0" style="stop-color:rgb(227,191,71);stop-opacity:1"/><stop offset="0.05" style="stop-color:rgb(231,199,93);stop-opacity:1"/><stop offset="0.14" style="stop-color:rgb(237,214,132);stop-opacity:1"/><stop offset="0.25" style="stop-color:rgb(243,226,165);stop-opacity:1"/><stop offset="0.35" style="stop-color:rgb(247,236,193);stop-opacity:1"/><stop offset="0.47" style="stop-color:rgb(251,244,214);stop-opacity:1"/><stop offset="0.6" style="stop-color:rgb(253,250,229);stop-opacity:1"/><stop offset="0.76" style="stop-color:rgb(255,253,237);stop-opacity:1"/><stop offset="1" style="stop-color:rgb(255,254,240);stop-opacity:1"/></linearGradient>
        <linearGradient id="_Linear5" x1="0" y1="0" x2="1" y2="0" gradientUnits="userSpaceOnUse" gradientTransform="matrix(34.1871,109.399,-109.399,34.1871,231.115,196.897)"><stop offset="0" style="stop-color:rgb(245,245,252);stop-opacity:1"/><stop offset="1" style="stop-color:rgb(245,245,252);stop-opacity:1"/></linearGradient>
        <linearGradient id="_Linear6" x1="0" y1="0" x2="1" y2="0" gradientUnits="userSpaceOnUse" gradientTransform="matrix(26.0889,86.2261,-86.2261,26.0889,229.098,188.641)"><stop offset="0" style="stop-color:rgb(227,191,71);stop-opacity:1"/><stop offset="1" style="stop-color:white;stop-opacity:1"/></linearGradient>
        <linearGradient id="_Linear7" x1="0" y1="0" x2="1" y2="0" gradientUnits="userSpaceOnUse" gradientTransform="matrix(32.5582,102.266,-102.266,32.5582,229.664,193.214)"><stop offset="0" style="stop-color:rgb(98,180,118);stop-opacity:1"/><stop offset="0.45" style="stop-color:rgb(108,193,122);stop-opacity:1"/><stop offset="1" style="stop-color:rgb(125,214,128);stop-opacity:1"/></linearGradient>
        <linearGradient id="_Linear8" x1="0" y1="0" x2="1" y2="0" gradientUnits="userSpaceOnUse" gradientTransform="matrix(12.0373,37.8096,-37.8096,12.0373,283.657,360.496)"><stop offset="0" style="stop-color:rgb(98,180,118);stop-opacity:1"/><stop offset="0.45" style="stop-color:rgb(108,193,122);stop-opacity:1"/><stop offset="1" style="stop-color:rgb(125,214,128);stop-opacity:1"/></linearGradient>
    </defs>
</svg>
