<?xml version="1.0" encoding="utf-8"?>
<!-- Generator: Adobe Adobe Illustrator 24.2.0, SVG Export Plug-In . SVG Version: 6.00 Build 0)  -->
<svg version="1.1" xmlns="http://www.w3.org/2000/svg" xmlns:xlink="http://www.w3.org/1999/xlink" x="0px" y="0px" width="540px"
	 height="540px" viewBox="0 0 540 540" style="enable-background:new 0 0 540 540;" xml:space="preserve">
<style type="text/css">
	.st0{fill:url(#SVGID_1_);}
	.st1{fill:url(#SVGID_2_);}
	.st2{fill:#222D5B;}
	.st3{fill:url(#SVGID_3_);}
	.st4{fill:url(#SVGID_4_);stroke:#222D5B;stroke-width:8;stroke-miterlimit:10;}
	.st5{fill:none;stroke:#221F20;stroke-width:5;stroke-miterlimit:10;}
	.st6{fill:url(#SVGID_5_);}
	.st7{clip-path:url(#SVGID_7_);}
	.st8{fill:url(#SVGID_8_);}
	.st9{fill:#FFFFFF;stroke:#FFFFFF;stroke-width:8;stroke-miterlimit:10;}
	.st10{fill:none;stroke:#F5F5FC;stroke-miterlimit:10;}
	.st11{fill:#F5F5F5;}
	.st12{fill:#E0FFE1;stroke:#D8FFDE;stroke-width:3;stroke-linecap:round;stroke-miterlimit:10;}
	.st13{fill:#E0FFE1;}
	.st14{fill:url(#SVGID_9_);}
	.st15{fill:url(#SVGID_10_);}
	.st16{fill:url(#SVGID_11_);}
	.st17{fill:none;stroke:#222D5B;stroke-width:0;stroke-linecap:round;stroke-linejoin:round;}
	.st18{fill:#D8FFDE;}
	.st19{fill:url(#SVGID_12_);stroke:#222D5B;stroke-width:7;stroke-miterlimit:10;}
	.st20{fill:url(#SVGID_13_);}
	.st21{fill:#62B476;}
	.st22{fill:url(#SVGID_14_);}
	.st23{fill:#F5F5FC;stroke:#222D5B;stroke-width:8;stroke-miterlimit:10;}
	.st24{fill:url(#SVGID_15_);}
	.st25{clip-path:url(#SVGID_17_);}
	.st26{fill:url(#SVGID_18_);}
	.st27{fill:url(#SVGID_19_);}
	.st28{fill:url(#SVGID_20_);}
	.st29{fill:url(#SVGID_21_);}
	.st30{fill:url(#SVGID_22_);stroke:#222D5B;stroke-width:7;stroke-miterlimit:10;}
	.st31{fill:#FFFFFF;}
	.st32{fill:none;stroke:#474292;stroke-width:28;stroke-miterlimit:10;}
	.st33{fill:none;stroke:#474292;stroke-width:20;stroke-miterlimit:10;}
	.st34{fill:#F5F5FC;}
	.st35{fill:none;stroke:#D8FFDE;stroke-width:28;stroke-linecap:round;stroke-miterlimit:10;}
	
		.st36{fill:#222D5B;stroke:#7DD680;stroke-width:19;stroke-linecap:round;stroke-miterlimit:10;stroke-dasharray:12,12,12,12,12,12;}
	.st37{fill:url(#SVGID_23_);}
	.st38{fill:#7E78C9;stroke:#222D5B;stroke-width:9;stroke-miterlimit:10;}
	.st39{fill:#7D78C4;stroke:#222D5B;stroke-width:8;stroke-miterlimit:10;}
	.st40{fill:#7E78C9;stroke:#222D5B;stroke-width:8;stroke-miterlimit:10;}
	.st41{fill:#7E78C9;stroke:#222D5B;stroke-width:6;stroke-miterlimit:10;}
	.st42{fill:#7DD680;stroke:#F5F5FC;stroke-miterlimit:10;}
	.st43{fill:url(#SVGID_24_);stroke:#222D5B;stroke-width:6;stroke-linecap:round;stroke-miterlimit:10;}
	.st44{fill:none;stroke:#7DD680;stroke-width:28;stroke-linecap:round;stroke-miterlimit:10;}
	.st45{fill:none;stroke:#222D5B;stroke-miterlimit:10;}
	.st46{fill:none;stroke:#222D5B;stroke-width:8;stroke-miterlimit:10;}
</style>
<g id="Layer_1">
</g>
<g id="Layer_4">
	<g>
		
			<linearGradient id="SVGID_1_" gradientUnits="userSpaceOnUse" x1="133.6013" y1="755.8563" x2="324.0343" y2="-85.8285" gradientTransform="matrix(0.9974 -0.0714 0.0714 0.9974 43.3416 -169.7275)">
			<stop  offset="0" style="stop-color:#474292"/>
			<stop  offset="0.2283" style="stop-color:#3B3B7E"/>
			<stop  offset="0.6926" style="stop-color:#1D284B"/>
			<stop  offset="1" style="stop-color:#071B26"/>
		</linearGradient>
		<ellipse class="st0" cx="276" cy="276.2" rx="235.5" ry="235.5"/>
		<g>
			<path class="st21" d="M384.61,355.11c-6.55,0-18.04-4.58-19.57-21.77c-0.28-3.19-4.99-21.4-10.89-25.92
				c-8.67-20.87-17.6-42.43-25.33-65.65c7.44-8.98,18.7-14.51,29.7-14.51c9.26,0,26.18,3.97,35.36,30.6
				c9.1,26.37,12.84,77.64-2.26,94.82C390.28,354.2,387.66,355.11,384.61,355.11z"/>
			<g>
				<path class="st2" d="M358.52,224.76v5c8.6,0,24.31,3.76,33,28.91c4.65,13.48,7.67,32.63,7.87,49.98
					c0.23,19.99-3.19,35.04-9.64,42.38c-0.69,0.79-2.55,1.58-5.13,1.58c-5.7,0-15.71-4.11-17.08-19.49
					c-0.23-2.63-1.9-8.76-3.8-13.94c-2.96-8.09-5.53-11.61-7.52-13.33c-8.4-20.24-17.05-41.14-24.57-63.52
					c6.96-7.8,17.04-12.57,26.88-12.57L358.52,224.76 M358.51,224.76c-12.47,0-24.77,6.51-32.5,16.51
					c7.94,24.05,17.03,45.93,26.12,67.81c4.83,2.52,10.09,20.84,10.41,24.48c1.55,17.38,13.16,24.05,22.06,24.05
					c3.77,0,7.06-1.2,8.89-3.28c16.29-18.54,11.82-71,2.74-97.29C388.24,233.85,373.25,224.76,358.51,224.76L358.51,224.76z"/>
			</g>
		</g>
		<g>
			<linearGradient id="SVGID_2_" gradientUnits="userSpaceOnUse" x1="143.6308" y1="272.3961" x2="206.6832" y2="470.4455">
				<stop  offset="0" style="stop-color:#62B476"/>
				<stop  offset="0.4477" style="stop-color:#6CC17A"/>
				<stop  offset="1" style="stop-color:#7DD680"/>
			</linearGradient>
			<path class="st1" d="M194.02,421.46c-0.44,0-0.85-0.05-1.23-0.14c-22.22-5.44-48.52-49.62-56.15-76.44
				c-4.43-15.56-2.96-28.85,4.27-38.42c6.38-8.45,17.21-13.49,28.98-13.49c3.71,0,7.36,0.49,10.88,1.46
				c6.96,23.45,11.98,46.25,16.83,68.32c-2.25,7.08,4.32,24.7,5.92,27.48c6.53,11.38,3.74,19.59,1.49,23.47
				C201.91,419.03,197.15,421.46,194.02,421.46C194.03,421.46,194.03,421.46,194.02,421.46z"/>
			<g>
				<path class="st2" d="M169.89,295.47c3.02,0,6,0.35,8.88,1.03c6.66,22.66,11.54,44.74,16.24,66.15
					c-0.65,2.55-0.74,6.91,1.47,15.23c1.41,5.33,3.55,11.31,4.87,13.6c5.91,10.29,3.47,17.55,1.49,20.97
					c-2.45,4.23-6.37,6.51-8.81,6.51c-0.24,0-0.45-0.02-0.64-0.07c-9.49-2.32-20.91-12.7-32.17-29.22
					c-9.77-14.34-18.27-31.76-22.17-45.48c-4.21-14.78-2.87-27.31,3.86-36.23C148.81,300.14,158.89,295.47,169.89,295.47
					 M169.89,290.47c-23.2,0-46.1,18.42-35.66,55.09c7.62,26.75,33.99,72.31,57.96,78.19c0.58,0.14,1.19,0.21,1.83,0.21
					c9.26,0,23.22-14.8,11.65-34.96c-1.82-3.17-8-21.2-5.48-26.03c-5.08-23.14-10.16-46.29-17.42-70.54
					C178.61,291.12,174.24,290.47,169.89,290.47L169.89,290.47z"/>
			</g>
		</g>
		<path class="st23" d="M237.03,386.65c-7.92-8-31.51-0.02-40.21-26.55c-12.04-36.73-27.57-108.17-37.08-143.5
			c-8.44-31.39-21.32-93.68,40.18-113.85c58.83-19.29,84.88,38.84,96.85,68.93c13.52,33.98,42.81,100.88,54.85,137.63
			c8.37,25.53-15.06,34.08-16.72,45.25v0c-0.52,3.53-2.99,6.46-6.38,7.57l-81.84,26.85C243.29,390.09,239.55,389.19,237.03,386.65
			L237.03,386.65z"/>
		<linearGradient id="SVGID_3_" gradientUnits="userSpaceOnUse" x1="202.3473" y1="101.9557" x2="230.3833" y2="206.9764">
			<stop  offset="0" style="stop-color:#62B476"/>
			<stop  offset="0.0211" style="stop-color:#60B275"/>
			<stop  offset="0.1587" style="stop-color:#58A871"/>
			<stop  offset="0.3377" style="stop-color:#56A570"/>
			<stop  offset="1" style="stop-color:#2E7360"/>
		</linearGradient>
		<path class="st3" d="M157.47,190.54c-9.5-41.33,2.91-87.92,63.21-91.19c42.36,0,63.77,53.5,63.77,53.5
			C252.36,137.16,180.89,164.5,157.47,190.54z"/>
		<g>
			<defs>
				<ellipse id="SVGID_16_" cx="276" cy="276.19" rx="236.41" ry="235.5"/>
			</defs>
			<clipPath id="SVGID_4_">
				<use xlink:href="#SVGID_16_"  style="overflow:visible;"/>
			</clipPath>
			<g style="clip-path:url(#SVGID_4_);">
				<g>
					<linearGradient id="SVGID_5_" gradientUnits="userSpaceOnUse" x1="283.4387" y1="408.042" x2="363.9828" y2="630.2965">
						<stop  offset="0" style="stop-color:#E3BF47"/>
						<stop  offset="0.047" style="stop-color:#E7C75D"/>
						<stop  offset="0.1427" style="stop-color:#EDD684"/>
						<stop  offset="0.2454" style="stop-color:#F3E2A5"/>
						<stop  offset="0.3547" style="stop-color:#F7ECC1"/>
						<stop  offset="0.4729" style="stop-color:#FBF4D6"/>
						<stop  offset="0.6044" style="stop-color:#FDFAE5"/>
						<stop  offset="0.7599" style="stop-color:#FFFDED"/>
						<stop  offset="1" style="stop-color:#FFFEF0"/>
					</linearGradient>
					<polygon class="st6" points="331.35,368.3 326.55,368.85 336.54,416.93 301.82,381.37 317.64,471.36 277.18,395.64 
						267.79,448.32 258.92,405.08 254.94,408.68 254.83,532.89 251.48,559.86 409.79,516.71 					"/>
				</g>
			</g>
		</g>
		<path class="st11" d="M356.03,118.52c-7.27,0.22-7.25,10.76,0,11C363.3,129.3,363.28,118.76,356.03,118.52z"/>
		<path class="st11" d="M399.69,187.24c-4.61,0.11-4.6,6.87,0,7C404.3,194.12,404.29,187.37,399.69,187.24z"/>
		<path class="st11" d="M337.79,179.78c-4.61,0.11-4.6,6.87,0,7C342.4,186.67,342.39,179.91,337.79,179.78z"/>
		<path class="st12" d="M270.26,128.75c-42.61-61.28-130.75-18.9-113.27,59.64c0.03,0.12,0.2,0.1,0.2-0.02
			c0.51-60.85,66.9-115.85,125.24-39.45C284.62,151.8,272.29,131.74,270.26,128.75z"/>
		<path class="st13" d="M175.01,295.16c-4.39-2.05-9.41-1.87-13.36-1.03c-13.75,2.16-23.75,15.32-25.29,28.86
			c-1.12,9.15,0.76,18.37,4.13,26.87c2.23,6.14,5.74,13.68,8.84,19.43c-2.15-6.63-4.57-14.97-6.27-21.72
			c-2.05-8.46-3.42-14.46-2.77-23.17c0.84-11.24,8.49-22.83,20.15-26.63c4.99-1.89,9.61-2.45,14.87-1.47L175.01,295.16z"/>
		<path class="st13" d="M393.61,257.75c-7.96-22.82-28.31-39.27-51.03-25.61c-4.14,2.8-11.93,7.77-10.59,11.23
			c8.64-10.64,24.77-14.08,36.43-10.58c20.86,8.67,25.24,33.61,29.52,55.28C398.41,281.91,396.63,266.43,393.61,257.75z"/>
		<linearGradient id="SVGID_7_" gradientUnits="userSpaceOnUse" x1="231.115" y1="196.8965" x2="265.3021" y2="306.2952">
			<stop  offset="0" style="stop-color:#F5F5FC"/>
			<stop  offset="1" style="stop-color:#F5F5FC"/>
		</linearGradient>
		<circle style="fill:url(#SVGID_7_);" cx="245.94" cy="244.35" r="46.3"/>
		<g>
			<g>
				<linearGradient id="SVGID_8_" gradientUnits="userSpaceOnUse" x1="229.0977" y1="188.6411" x2="255.1866" y2="274.8672">
					<stop  offset="0" style="stop-color:#E3BF47"/>
					<stop  offset="1" style="stop-color:#FFFFFF"/>
				</linearGradient>
				<path class="st8" d="M223.34,283.78l0.99-0.25l-9.78-40.42l29.72,20.68l-10.59-54.46l33.27,45.02l10.53-32.43l9.85,41.32
					c4.64-10.05,5.7-21.82,2.13-33.25c-7.61-24.34-33.35-37.96-57.49-30.41c-24.15,7.54-37.55,33.39-29.95,57.74
					C205.67,268.99,213.51,278.2,223.34,283.78z"/>
			</g>
		</g>
		<linearGradient id="SVGID_9_" gradientUnits="userSpaceOnUse" x1="229.6642" y1="193.2142" x2="262.2224" y2="295.4803">
			<stop  offset="0" style="stop-color:#62B476"/>
			<stop  offset="0.4477" style="stop-color:#6CC17A"/>
			<stop  offset="1" style="stop-color:#7DD680"/>
		</linearGradient>
		<path class="st14" d="M246.41,200.61c18.57,0,35.74,11.58,41.75,29.9c7.51,22.91-5.31,47.67-28.62,55.32
			c-4.67,1.53-9.41,2.26-14.07,2.26c-18.57,0-35.74-11.58-41.75-29.9c-7.51-22.91,5.31-47.67,28.62-55.32
			C237.02,201.34,241.76,200.61,246.41,200.61 M246.42,190.6v10.01V190.6L246.42,190.6c-5.82,0-11.61,0.93-17.19,2.76
			c-28.52,9.35-44.23,39.83-35.02,67.95c7.21,22.01,27.81,36.79,51.26,36.79c5.82,0,11.6-0.93,17.18-2.76
			c28.52-9.35,44.23-39.83,35.02-67.95C290.46,205.38,269.86,190.6,246.42,190.6L246.42,190.6z"/>
		<g>
			<path class="st2" d="M245.94,190.74c29.61,0,53.61,24,53.61,53.61s-24,53.61-53.61,53.61s-53.61-24-53.61-53.61
				S216.34,190.74,245.94,190.74 M245.94,183.74c-33.42,0-60.61,27.19-60.61,60.61s27.19,60.61,60.61,60.61s60.61-27.19,60.61-60.61
				S279.36,183.74,245.94,183.74L245.94,183.74z"/>
		</g>
		<path class="st13" d="M230.89,193.05c-36.78,12.03-42.75,43.43-36.29,66.94c-5.66-45.4,38.44-77.63,82.15-59.36
			C263.97,191.51,246.28,188.01,230.89,193.05z"/>
		<path class="st17" d="M382.15,235.21c-0.1,0.07-0.2,0.15-0.28,0.24"/>
		<path class="st18" d="M538.53,248.03c-1.96,0.01-1.96,2.99,0,3C540.49,251.03,540.49,248.05,538.53,248.03z"/>
		<linearGradient id="SVGID_10_" gradientUnits="userSpaceOnUse" x1="283.6574" y1="360.4961" x2="295.6947" y2="398.3057">
			<stop  offset="0" style="stop-color:#62B476"/>
			<stop  offset="0.4477" style="stop-color:#6CC17A"/>
			<stop  offset="1" style="stop-color:#7DD680"/>
		</linearGradient>
		<path style="fill:url(#SVGID_10_);stroke:#222D5B;stroke-width:7;stroke-miterlimit:10;" d="M237.05,383.29
			c25.71-17.06,76.29-36.13,97.48-31.96c4.43,4.24,8.04,11.05,10.72,17.44c3.13,7.45-1.87,15.73-9.9,16.66
			c-27.12,3.14-61.82,17.38-80.64,24.97c-7.52,3.03-15.91-1.75-17.1-9.77C236.34,392.1,236.13,383.9,237.05,383.29z"/>
		<path class="st2" d="M153.92,188.28c22.06-24.04,85.03-49.86,131.8-40.43l0.95,5.1c-58-2.49-76.05,7.07-130.55,40.97
			C156.12,193.92,154.1,193.01,153.92,188.28z"/>
	</g>
	<circle class="st32" cx="273.69" cy="269.71" r="235.1"/>
</g>
<g id="Layer_3">
	<polygon class="st34" points="380.51,137.94 401.56,107.87 371.54,117.61 356.56,81.95 348.31,120.75 319.99,114.18 342.33,134.53 
		342.11,135.33 311.03,157.7 349.61,150.92 359.67,186.78 370.98,154.38 406.14,162.54 	"/>
	<path class="st34" d="M122.67,240.45c-5.27,0.13-5.26,7.85,0,8C127.95,248.32,127.93,240.6,122.67,240.45z"/>
	<path class="st34" d="M110.38,195.9c-5.27,0.13-5.26,7.86,0,8C115.66,203.77,115.64,196.04,110.38,195.9z"/>
	<path class="st34" d="M103.7,238.99c-2.17-8.09-13.89-8.98-16.9-1.07c-2.78,5.55,2.09,12.68,8.22,12.47
		C100.89,250.48,105.26,244.6,103.7,238.99z"/>
</g>
</svg>
