<svg xmlns="http://www.w3.org/2000/svg" xmlns:xlink="http://www.w3.org/1999/xlink" version="1.1" x="0px" y="0px" viewBox="0 0 600 322.5" style="enable-background:new 0 0 600 258;" xml:space="preserve"><g><g><path d="M104.9,243.5c-3.2,0-5.8-2.6-5.8-5.8V26.1H86c-3.2,0-5.8-2.6-5.8-5.8s2.6-5.8,5.8-5.8h18.9c3.2,0,5.8,2.6,5.8,5.8v217.3    C110.7,240.9,108.1,243.5,104.9,243.5z"/></g><g><path d="M104.9,103.4H87.1c-3.2,0-5.8-2.6-5.8-5.8V63.2c0-3.2,2.6-5.8,5.8-5.8h17.8c3.2,0,5.8,2.6,5.8,5.8v34.4    C110.7,100.8,108.1,103.4,104.9,103.4z M92.9,91.8h6.2V69h-6.2V91.8z"/></g><g><path d="M104.3,206.8H86.5c-3.2,0-5.8-2.6-5.8-5.8v-82.2c0-3.2,2.6-5.8,5.8-5.8h17.8c3.2,0,5.8,2.6,5.8,5.8V201    C110.1,204.2,107.5,206.8,104.3,206.8z M92.3,195.2h6.2v-70.6h-6.2V195.2z"/></g><g><g><path d="M397.6,204.1c-34.6,0-67-21.6-79.1-56l0,0c-7.4-21.1-6.2-43.8,3.5-64c9.7-20.2,26.6-35.4,47.8-42.8     C413.4,26,461.3,49,476.6,92.5c7.4,21.1,6.2,43.8-3.5,64c-9.7,20.2-26.6,35.4-47.8,42.8C416.2,202.5,406.8,204.1,397.6,204.1z      M329.5,144.2c13.2,37.5,54.4,57.4,92,44.2c18.2-6.4,32.8-19.5,41.1-36.8c8.3-17.4,9.4-37,3-55.1c-13.2-37.5-54.4-57.4-92-44.2     c-18.2,6.4-32.8,19.5-41.1,36.8C324.2,106.4,323.1,126,329.5,144.2L329.5,144.2z"/></g><g><g><path d="M389.9,104.2c-2.4,0-4.6-1.5-5.5-3.9c-3.2-9.2-9.8-16.5-18.6-20.7c-8.8-4.2-18.6-4.7-27.8-1.5c-3,1.1-6.3-0.5-7.4-3.6      c-1.1-3,0.5-6.3,3.6-7.4c12.1-4.2,25.1-3.5,36.7,2c11.5,5.5,20.2,15.3,24.5,27.3c1.1,3-0.5,6.3-3.6,7.4      C391.2,104.1,390.5,104.2,389.9,104.2z"/></g></g><g><g><path d="M405.8,104.4c-0.7,0-1.4-0.1-2-0.4c-3-1.1-4.5-4.5-3.4-7.5c3.4-9.1,3.1-19-0.9-27.8s-11.2-15.6-20.3-19      c-3-1.1-4.5-4.5-3.4-7.5c1.1-3,4.5-4.5,7.5-3.4c24.7,9.3,37.3,37,28,61.8C410.3,102.9,408.1,104.4,405.8,104.4z"/></g></g><g><g><path d="M417.8,114.7c-2,0-4-1.1-5.1-3c-1.6-2.8-0.6-6.3,2.2-7.9c17.5-9.8,23.7-32,13.9-49.5c-1.6-2.8-0.6-6.3,2.2-7.9      c2.8-1.6,6.3-0.6,7.9,2.2c13,23.1,4.8,52.3-18.3,65.3C419.8,114.5,418.8,114.7,417.8,114.7z"/></g></g><g><g><path d="M428.3,131.1c-3,0-6-0.3-9-0.8c-3.1-0.6-5.2-3.6-4.6-6.8c0.6-3.1,3.6-5.2,6.8-4.6c19.7,3.7,38.7-9.3,42.5-29      c0.6-3.1,3.6-5.2,6.8-4.6c3.1,0.6,5.2,3.6,4.6,6.8c-2.4,12.6-9.5,23.5-20.1,30.7C447.2,128.3,437.8,131.1,428.3,131.1z"/></g></g><g><g><path d="M445,159.5c-1.6,0-3.2-0.1-4.8-0.2c-12.7-1.3-24.2-7.4-32.4-17.3c-2-2.5-1.7-6.1,0.8-8.2c2.5-2,6.1-1.7,8.2,0.8      c6.2,7.5,14.9,12.2,24.5,13.1c9.7,1,19.1-1.9,26.6-8.1c2.5-2,6.1-1.7,8.2,0.8c2,2.5,1.7,6.1-0.8,8.2      C466.6,155.7,456,159.5,445,159.5z"/></g></g><g><g><path d="M439,192C439,192,438.9,192,439,192c-12.9-0.1-24.9-5.3-33.8-14.4s-13.8-21.3-13.7-34.1c0-3.2,2.6-5.7,5.9-5.7      c3.2,0,5.8,2.7,5.7,5.9c-0.1,9.7,3.6,18.9,10.4,25.8c6.8,6.9,15.9,10.8,25.6,10.9c3.2,0,5.8,2.7,5.7,5.9      C444.8,189.4,442.2,192,439,192z"/></g></g><g><g><path d="M387,203.2c-1.3,0-2.7-0.5-3.8-1.4c-9.7-8.3-15.6-20-16.6-32.7c-1-12.8,3.1-25.2,11.4-34.9c2.1-2.4,5.8-2.7,8.2-0.6      c2.4,2.1,2.7,5.8,0.6,8.2c-6.3,7.4-9.4,16.8-8.7,26.4c0.7,9.7,5.2,18.5,12.6,24.8c2.4,2.1,2.7,5.7,0.6,8.2      C390.2,202.5,388.6,203.2,387,203.2z"/></g></g><g><g><path d="M339.9,178.3c-2.8,0-5.2-2-5.7-4.9c-4.3-26.1,13.4-50.8,39.5-55.1c3.2-0.5,6.1,1.6,6.7,4.8c0.5,3.2-1.6,6.1-4.8,6.7      c-19.8,3.3-33.2,22-30,41.8c0.5,3.2-1.6,6.1-4.8,6.7C340.5,178.3,340.2,178.3,339.9,178.3z"/></g></g><g><g><path d="M319.8,129c-1,0-2-0.3-3-0.8c-2.8-1.6-3.7-5.2-2-7.9c13.5-22.8,43-30.3,65.7-16.8c2.8,1.6,3.7,5.2,2,7.9      c-1.6,2.8-5.2,3.7-7.9,2c-17.2-10.2-39.6-4.5-49.8,12.7C323.7,128,321.8,129,319.8,129z"/></g></g><g><path d="M397.6,149.3c-12,0-23.2-7.5-27.4-19.4c0,0,0,0,0,0c-5.3-15.1,2.7-31.7,17.8-37c7.3-2.6,15.2-2.1,22.2,1.2     c7,3.4,12.3,9.2,14.8,16.5c2.6,7.3,2.1,15.2-1.2,22.2c-3.4,7-9.2,12.3-16.5,14.8C404,148.8,400.8,149.3,397.6,149.3z      M381.1,126.1c3.2,9.1,13.1,13.9,22.2,10.7c4.4-1.5,7.9-4.7,9.9-8.9c2-4.2,2.3-8.9,0.7-13.3c-1.5-4.4-4.7-7.9-8.9-9.9     c-4.2-2-8.9-2.3-13.3-0.7C382.7,107,378,117,381.1,126.1L381.1,126.1z"/></g></g><g><g><path d="M212.6,204.1c-45.2,0-82.5-36.1-83.7-81.6c-1.2-46.2,35.4-84.7,81.6-85.9c46.2-1.2,84.7,35.4,85.9,81.6     c1.2,46.2-35.4,84.7-81.6,85.9C214,204,213.3,204.1,212.6,204.1z M214.5,192.4l0.2,5.8L214.5,192.4c39.8-1,71.3-34.2,70.3-74     c-1-39.1-33.2-70.3-72.1-70.3c-0.6,0-1.3,0-1.9,0c-19.3,0.5-37.2,8.5-50.5,22.5c-13.3,14-20.3,32.3-19.8,51.6     C141.5,161.9,174.7,193.4,214.5,192.4z"/></g><g><g><path d="M148.3,169.9c-3.1,0-5.7-2.5-5.8-5.7c-0.7-26.4,20.3-48.5,46.7-49.2c3.2-0.1,5.9,2.4,5.9,5.6c0.1,3.2-2.4,5.9-5.6,5.9      c-20,0.5-35.9,17.2-35.4,37.3c0.1,3.2-2.4,5.9-5.6,5.9C148.4,169.9,148.4,169.9,148.3,169.9z"/></g></g><g><g><path d="M135.2,118.4c-1.3,0-2.5-0.4-3.6-1.3c-2.5-2-2.9-5.6-0.9-8.2c16.5-20.7,46.7-24.1,67.4-7.7c2.5,2,2.9,5.6,0.9,8.2      s-5.6,2.9-8.2,0.9c-15.7-12.5-38.6-9.9-51.1,5.8C138.6,117.6,136.9,118.4,135.2,118.4z"/></g></g><g><g><path d="M208,103.3c-2.7,0-5.1-1.9-5.7-4.6c-4-19.6-23.2-32.4-42.9-28.4c-3.1,0.6-6.2-1.4-6.8-4.5s1.4-6.2,4.5-6.8      c25.9-5.3,51.3,11.5,56.6,37.4c0.6,3.1-1.4,6.2-4.5,6.8C208.7,103.3,208.4,103.3,208,103.3z"/></g></g><g><g><path d="M223.7,105.7c-0.9,0-1.9-0.2-2.8-0.7c-2.8-1.5-3.9-5.1-2.3-7.9c9.6-17.6,3-39.7-14.6-49.3c-2.8-1.5-3.9-5.1-2.3-7.9      s5.1-3.9,7.9-2.3c23.2,12.6,31.9,41.8,19.2,65C227.7,104.6,225.7,105.7,223.7,105.7z"/></g></g><g><g><path d="M234.2,117.6c-2.3,0-4.5-1.4-5.4-3.7c-1.2-3,0.3-6.3,3.3-7.5c18.7-7.3,27.9-28.5,20.5-47.1c-1.2-3,0.3-6.3,3.3-7.5      c3-1.2,6.3,0.3,7.5,3.3c9.7,24.6-2.5,52.5-27.1,62.2C235.6,117.5,234.9,117.6,234.2,117.6z"/></g></g><g><g><path d="M248.1,135.7c-5.1,0-10.3-0.8-15.3-2.5c-3-1-4.7-4.3-3.7-7.3c1-3,4.3-4.7,7.3-3.7c9.2,3.1,19.1,2.4,27.8-1.9      c8.7-4.3,15.2-11.8,18.3-21c1-3,4.3-4.7,7.3-3.7c3,1,4.7,4.3,3.7,7.3c-4.1,12.1-12.6,22-24.1,27.7      C262.7,134,255.4,135.7,248.1,135.7z"/></g></g><g><g><path d="M260.8,166c-16.2,0-31.9-8.1-41-22.9c-1.7-2.7-0.8-6.3,1.9-8c2.7-1.7,6.3-0.8,8,1.9c10.5,17.1,32.9,22.5,50,12      c2.7-1.7,6.3-0.8,8,1.9c1.7,2.7,0.8,6.3-1.9,8C277.9,163.8,269.3,166,260.8,166z"/></g></g><g><g><path d="M244.6,197c-0.3,0-0.6,0-0.9-0.1c-26.2-3.9-44.2-28.4-40.3-54.5c0.5-3.2,3.4-5.3,6.6-4.9c3.2,0.5,5.4,3.4,4.9,6.6      c-1.4,9.6,1,19.2,6.7,27c5.8,7.8,14.2,12.9,23.8,14.3c3.2,0.5,5.4,3.4,4.9,6.6C249.9,194.9,247.5,197,244.6,197z"/></g></g><g><g><path d="M191.6,201c-1.6,0-3.2-0.7-4.3-2c-8.5-9.6-12.7-21.9-11.9-34.7c0.8-12.8,6.5-24.5,16.1-33c2.4-2.1,6.1-1.9,8.2,0.5      c2.1,2.4,1.9,6.1-0.5,8.2c-7.3,6.4-11.6,15.3-12.2,25s2.6,19,9.1,26.3c2.1,2.4,1.9,6.1-0.5,8.2C194.3,200.5,192.9,201,191.6,201      z"/></g></g><g><path d="M212.6,149.3c-15.7,0-28.6-12.5-29-28.3c-0.4-16,12.3-29.3,28.3-29.8c7.7-0.2,15.1,2.6,20.7,8c5.6,5.3,8.8,12.5,9,20.3     c0.2,7.7-2.6,15.1-8,20.7s-12.5,8.8-20.3,9C213.1,149.3,212.8,149.3,212.6,149.3z M213.1,137.7l0.2,5.8L213.1,137.7     c4.7-0.1,9-2,12.2-5.4c3.2-3.4,4.9-7.8,4.8-12.4c-0.1-4.7-2-9-5.4-12.2s-7.8-4.9-12.4-4.8c-9.6,0.2-17.2,8.3-17,17.9     C195.4,130.4,203.5,138,213.1,137.7z"/></g></g><g><path d="M207.4,243.5h-33.1c-3.2,0-5.8-2.6-5.8-5.8v-16.2c0-3.2,2.6-5.8,5.8-5.8s5.8,2.6,5.8,5.8v10.4h21.5v-10.4    c0-3.2,2.6-5.8,5.8-5.8s5.8,2.6,5.8,5.8v16.2C213.2,240.9,210.6,243.5,207.4,243.5z"/></g><g><path d="M357.5,243.5H225.2c-3.2,0-5.8-2.6-5.8-5.8v-16.2c0-3.2,2.6-5.8,5.8-5.8s5.8,2.6,5.8,5.8v10.4h120.7v-10.4    c0-3.2,2.6-5.8,5.8-5.8s5.8,2.6,5.8,5.8v16.2C363.3,240.9,360.7,243.5,357.5,243.5z"/></g><g><path d="M414.1,226.1H121.1c-3.2,0-5.8-2.6-5.8-5.8s2.6-5.8,5.8-5.8h292.9c51.9,0,94.2-42.2,94.2-94.2c0-13.9-2.9-27.2-8.8-39.6    h-12.9c-2.2,0-4.2-1.2-5.2-3.2c-16.2-31.7-48.3-51.4-83.9-51.4H160l-12.1,18.3c-1.1,1.6-2.9,2.6-4.8,2.6h-21.8    c-3.2,0-5.8-2.6-5.8-5.8s2.6-5.8,5.8-5.8h18.7L152,17.1c1.1-1.6,2.9-2.6,4.8-2.6h240.7c38.7,0,73.8,20.8,92.5,54.5h13    c2.2,0,4.2,1.2,5.2,3.2c7.7,15,11.6,31.2,11.6,48.1C519.8,178.6,472.4,226.1,414.1,226.1z"/></g><g><path d="M328,226.1c-1.8,0-3.6-0.8-4.7-2.4l-22.4-31h-47.8c-3.2,0-5.8-2.6-5.8-5.8s2.6-5.8,5.8-5.8h50.7c1.9,0,3.6,0.9,4.7,2.4    l24.1,33.4c1.9,2.6,1.3,6.2-1.3,8.1C330.3,225.7,329.1,226.1,328,226.1z"/></g><g><path d="M353.5,61.8h-49.5c-1.9,0-3.7-1-4.8-2.5L275,23.6c-1.8-2.7-1.1-6.3,1.6-8.1c2.7-1.8,6.3-1.1,8.1,1.6L307,50.2h46.5    c3.2,0,5.8,2.6,5.8,5.8S356.7,61.8,353.5,61.8z"/></g><g><path d="M172.1,192.7h-67.8c-3.2,0-5.8-2.6-5.8-5.8s2.6-5.8,5.8-5.8h67.8c3.2,0,5.8,2.6,5.8,5.8S175.3,192.7,172.1,192.7z"/></g><g><path d="M121.1,47h-16.2c-3.2,0-5.8-2.6-5.8-5.8s2.6-5.8,5.8-5.8h16.2c3.2,0,5.8,2.6,5.8,5.8S124.3,47,121.1,47z"/></g><g><path d="M121.1,226.1h-13.9c-3.2,0-5.8-2.6-5.8-5.8s2.6-5.8,5.8-5.8h13.9c3.2,0,5.8,2.6,5.8,5.8S124.3,226.1,121.1,226.1z"/></g></g><text x="0" y="273" fill="#000000" font-size="5px" font-weight="bold" font-family="'Helvetica Neue', Helvetica, Arial-Unicode, Arial, Sans-serif">Created by Misha Petrishchev</text><text x="0" y="278" fill="#000000" font-size="5px" font-weight="bold" font-family="'Helvetica Neue', Helvetica, Arial-Unicode, Arial, Sans-serif">from the Noun Project</text></svg>