<svg xmlns="http://www.w3.org/2000/svg" xmlns:xlink="http://www.w3.org/1999/xlink" version="1.1" x="0px" y="0px" viewBox="0 0 32 40" enable-background="new 0 0 32 32" xml:space="preserve"><rect x="13.868" y="24.141" width="4.262" height="0.76"/><path d="M15.999,13.684c-0.914,0-1.657,0.744-1.657,1.658s0.743,1.656,1.657,1.656s1.656-0.742,1.656-1.656  S16.913,13.684,15.999,13.684z M15.999,16.238c-0.494,0-0.897-0.402-0.897-0.896c0-0.496,0.403-0.898,0.897-0.898  s0.896,0.402,0.896,0.898C16.896,15.836,16.493,16.238,15.999,16.238z"/><path d="M19.956,15.342c0-0.578-0.349-1.074-0.846-1.291c0.197-0.504,0.093-1.1-0.313-1.508c-0.394-0.391-1.008-0.512-1.51-0.314  c-0.217-0.496-0.713-0.844-1.289-0.844s-1.072,0.348-1.29,0.844c-0.501-0.195-1.118-0.076-1.507,0.314  c-0.408,0.408-0.513,1.004-0.314,1.51c-0.496,0.217-0.844,0.713-0.844,1.289c0,0.574,0.348,1.072,0.844,1.289  c-0.197,0.504-0.092,1.102,0.314,1.508c0.059,0.059,0.129,0.098,0.197,0.145l-0.598,2.18c-0.04,0.15,0.014,0.311,0.139,0.404  s0.293,0.102,0.427,0.021l0.573-0.35l0.481,1.207c0.059,0.146,0.198,0.24,0.353,0.24c0.015,0,0.029-0.002,0.045-0.004  c0.17-0.02,0.307-0.15,0.332-0.32l0.372-2.457c0.149,0.055,0.308,0.092,0.476,0.092c0.169,0,0.327-0.037,0.477-0.092l0.373,2.457  c0.025,0.17,0.162,0.301,0.332,0.32c0.015,0.002,0.029,0.004,0.043,0.004c0.155,0,0.296-0.094,0.354-0.24l0.481-1.207l0.574,0.35  c0.133,0.082,0.302,0.072,0.427-0.021c0.124-0.094,0.178-0.254,0.138-0.404l-0.597-2.18c0.066-0.047,0.138-0.086,0.195-0.145  c0.267-0.266,0.413-0.619,0.414-0.994c0-0.18-0.033-0.354-0.098-0.516C19.608,16.412,19.956,15.916,19.956,15.342z M14.609,20.164  l-0.13-0.324c-0.041-0.105-0.127-0.186-0.232-0.221c-0.107-0.037-0.223-0.021-0.318,0.037l-0.141,0.084l0.332-1.211  c0.201,0.014,0.404-0.002,0.592-0.074c0.033,0.074,0.082,0.137,0.127,0.203L14.609,20.164z M18.069,19.654  c-0.096-0.057-0.213-0.072-0.318-0.035c-0.105,0.035-0.191,0.115-0.232,0.221l-0.129,0.322l-0.228-1.502  c0.044-0.068,0.095-0.131,0.128-0.205c0.187,0.072,0.389,0.088,0.59,0.074l0.332,1.213L18.069,19.654z M18.476,15.977  c-0.176-0.018-0.332,0.08-0.395,0.238c-0.063,0.16-0.012,0.342,0.125,0.443c0.025,0.02,0.055,0.039,0.055,0.029  c0.121,0.121,0.189,0.283,0.189,0.455c0,0.174-0.068,0.336-0.191,0.459c-0.243,0.244-0.697,0.209-0.885,0.033  c-0.01-0.02-0.047-0.078-0.059-0.094c-0.105-0.135-0.281-0.145-0.439-0.08c-0.157,0.064-0.248,0.262-0.229,0.432  c0,0.355-0.291,0.645-0.648,0.645c-0.355,0-0.645-0.289-0.638-0.715c0.021-0.172-0.076-0.334-0.237-0.398  c-0.045-0.018-0.093-0.027-0.14-0.027c-0.118,0-0.232,0.057-0.306,0.154c-0.018,0.025-0.033,0.051-0.025,0.053  c-0.243,0.242-0.671,0.242-0.914-0.002c-0.251-0.252-0.251-0.662-0.032-0.885c0.021-0.012,0.083-0.053,0.101-0.068  c0.129-0.107,0.137-0.283,0.07-0.438s-0.256-0.24-0.428-0.223c-0.357,0-0.646-0.291-0.646-0.646c0-0.357,0.289-0.646,0.644-0.646  l0.077,0.01c0.164,0.016,0.329-0.078,0.393-0.236c0.063-0.158,0.014-0.338-0.121-0.443c-0.026-0.02-0.052-0.043-0.059-0.029  c-0.252-0.254-0.25-0.662,0.002-0.916c0.242-0.244,0.695-0.213,0.887-0.029c0.009,0.016,0.044,0.07,0.055,0.086  c0.103,0.133,0.276,0.141,0.432,0.082c0.158-0.061,0.252-0.26,0.238-0.428c0-0.357,0.291-0.646,0.648-0.646s0.646,0.289,0.639,0.715  c-0.021,0.172,0.078,0.336,0.236,0.398c0.164,0.064,0.346,0.012,0.445-0.127c0.02-0.025,0.035-0.051,0.025-0.051l0,0  c0.244-0.244,0.672-0.242,0.915,0c0.251,0.252,0.25,0.662,0.03,0.887c-0.019,0.01-0.078,0.049-0.095,0.063  c-0.132,0.105-0.142,0.281-0.077,0.438c0.066,0.156,0.263,0.25,0.432,0.227c0.356,0,0.646,0.291,0.646,0.648  C19.196,15.697,18.903,15.98,18.476,15.977z"/><path d="M31.217,22.643h-2.882V10.203c0-1.467-1.193-2.66-2.659-2.66h-0.854v0.76h0.854c1.048,0,1.899,0.852,1.899,1.9v12.439H4.424  V10.203c0-1.049,0.853-1.9,1.899-1.9h0.855v-0.76H6.323c-1.466,0-2.66,1.193-2.66,2.66v12.439H0.782  c-0.209,0-0.379,0.17-0.379,0.381v0.146c0,1.779,1.447,3.227,3.225,3.227H28.37c1.779,0,3.227-1.447,3.227-3.227v-0.146  C31.597,22.813,31.427,22.643,31.217,22.643z M28.37,25.637H3.628c-1.281,0-2.337-0.982-2.454-2.234h29.651  C30.708,24.654,29.651,25.637,28.37,25.637z"/><path d="M9.458,6.734c0-0.205,0.166-0.371,0.371-0.371h12.342c0.204,0,0.371,0.166,0.371,0.371v14.391h0.76V6.734  c0-0.623-0.508-1.131-1.131-1.131H9.829c-0.623,0-1.131,0.508-1.131,1.131v14.391h0.76V6.734z"/><rect x="10.882" y="8.727" width="10.237" height="0.76"/><path d="M21.119,11.24h-3.624c0.049,0.049,0.104,0.088,0.148,0.141c0.049-0.004,0.097-0.006,0.146-0.006  c0.578,0,1.139,0.229,1.54,0.627h1.789V11.24z"/><path d="M14.208,11.375c0.049,0,0.098,0.002,0.146,0.006c0.044-0.053,0.1-0.092,0.148-0.141h-3.62v0.762h1.787  C13.067,11.604,13.628,11.375,14.208,11.375z"/><path d="M21.119,13.756h-1.104c0.229,0.213,0.409,0.471,0.528,0.76h0.575V13.756z"/><path d="M10.882,13.756v0.76h0.574c0.119-0.287,0.299-0.547,0.527-0.76H10.882z"/><path d="M19.964,16.98c0.002,0.018,0,0.035,0.002,0.051h1.153v-0.76h-0.616C20.374,16.541,20.192,16.785,19.964,16.98z"/><path d="M10.882,17.031h1.156c0.002-0.016-0.002-0.031-0.001-0.047c-0.229-0.199-0.411-0.441-0.541-0.713h-0.614V17.031z"/><text x="0" y="47" fill="#000000" font-size="5px" font-weight="bold" font-family="'Helvetica Neue', Helvetica, Arial-Unicode, Arial, Sans-serif">Created by Ethan Nam</text><text x="0" y="52" fill="#000000" font-size="5px" font-weight="bold" font-family="'Helvetica Neue', Helvetica, Arial-Unicode, Arial, Sans-serif">from the Noun Project</text></svg>